<svg width="155" height="31" viewBox="0 0 155 31" fill="none" xmlns="http://www.w3.org/2000/svg">
<path d="M51.5897 9.84265C51.2609 9.66745 50.8266 9.46921 50.287 9.24791C49.7473 9.02661 49.136 8.81914 48.453 8.6255C47.77 8.42264 47.028 8.25667 46.227 8.12757C45.4259 7.98926 44.6038 7.92011 43.7606 7.92011C43.086 7.92011 42.5084 7.94316 42.0278 7.98926C41.5556 8.03537 41.1551 8.0953 40.8262 8.16907C40.5058 8.24284 40.2487 8.33043 40.0547 8.43186C39.8692 8.52407 39.7259 8.62089 39.6247 8.72232C39.5235 8.82375 39.456 8.92518 39.4223 9.02661C39.397 9.12804 39.3844 9.22024 39.3844 9.30323C39.3844 9.57986 39.5108 9.82421 39.7638 10.0363C40.0168 10.2391 40.3625 10.4236 40.8009 10.5895C41.2394 10.7463 41.7496 10.8984 42.3314 11.046C42.9132 11.1843 43.5287 11.3318 44.178 11.4886C44.8357 11.6361 45.5102 11.8021 46.2017 11.9865C46.9015 12.1617 47.5761 12.3692 48.2253 12.6089C48.883 12.8486 49.5028 13.1299 50.0846 13.4526C50.6664 13.7661 51.1766 14.135 51.615 14.5591C52.0535 14.9833 52.3992 15.472 52.6522 16.0252C52.9051 16.5785 53.0316 17.2101 53.0316 17.9201C53.0316 18.833 52.884 19.6167 52.5889 20.2714C52.2938 20.9261 51.8975 21.4793 51.4 21.9312C50.9109 22.383 50.3418 22.7472 49.6925 23.0238C49.0433 23.2912 48.3603 23.4987 47.6435 23.6462C46.9352 23.7938 46.2143 23.8906 45.4807 23.9367C44.7556 23.9828 44.0641 24.0059 43.4064 24.0059C41.6863 24.0059 40.0927 23.8491 38.6255 23.5356C37.1667 23.2313 35.8766 22.8486 34.7552 22.3876V17.8509C35.9104 18.5517 37.2258 19.1004 38.7014 19.4969C40.1854 19.8934 41.7706 20.0916 43.457 20.0916C44.452 20.0916 45.2615 20.0363 45.8855 19.9256C46.5179 19.8058 47.0111 19.6582 47.3653 19.483C47.7194 19.2986 47.9597 19.1004 48.0862 18.8883C48.2127 18.6762 48.2759 18.4734 48.2759 18.2797C48.2759 17.9754 48.1495 17.7126 47.8965 17.4913C47.6435 17.2608 47.2978 17.0626 46.8594 16.8966C46.4209 16.7214 45.9108 16.5646 45.3289 16.4263C44.7471 16.2788 44.1274 16.1359 43.4697 15.9976C42.8204 15.85 42.1501 15.6933 41.4586 15.5273C40.7672 15.3613 40.0927 15.1677 39.435 14.9464C38.7857 14.7159 38.1702 14.4531 37.5883 14.158C37.0065 13.8537 36.4964 13.4987 36.0579 13.093C35.6195 12.6781 35.2738 12.2032 35.0208 11.6684C34.7678 11.1243 34.6414 10.4973 34.6414 9.78733C34.6414 8.94823 34.7763 8.22439 35.0461 7.61582C35.3159 7.00724 35.6785 6.49088 36.1338 6.06672C36.5976 5.63334 37.1288 5.28295 37.7275 5.01554C38.3346 4.74814 38.9712 4.54067 39.6373 4.39313C40.3035 4.2456 40.978 4.14417 41.661 4.08885C42.344 4.03352 42.9933 4.00586 43.6088 4.00586C44.2834 4.00586 44.9748 4.04274 45.6831 4.11651C46.3998 4.19028 47.1039 4.29632 47.7953 4.43463C48.4867 4.56372 49.1529 4.71586 49.7937 4.89106C50.443 5.06626 51.0416 5.25067 51.5897 5.44431V9.84265Z" fill="black"/>
<path d="M74.1159 23.4941V15.5688H62.1761V23.4941H57.4837V4.48995H62.1761V11.4056H74.1159V4.48995H78.8083V23.4941H74.1159Z" fill="black"/>
<path d="M106.735 14.0059C106.735 15.6379 106.461 17.081 105.913 18.335C105.365 19.5799 104.581 20.6218 103.56 21.4609C102.54 22.3 101.301 22.9362 99.842 23.3696C98.3917 23.7938 96.7601 24.0059 94.9472 24.0059C93.1343 24.0059 91.4943 23.7938 90.0271 23.3696C88.5684 22.9362 87.3246 22.3 86.2959 21.4609C85.2672 20.6218 84.4746 19.5799 83.9181 18.335C83.3616 17.081 83.0833 15.6379 83.0833 14.0059C83.0833 12.3738 83.3616 10.9353 83.9181 9.69051C84.4746 8.43647 85.2672 7.38991 86.2959 6.55081C87.3246 5.71171 88.5684 5.08009 90.0271 4.65593C91.4943 4.22255 93.1343 4.00586 94.9472 4.00586C96.7601 4.00586 98.3917 4.22255 99.842 4.65593C101.301 5.08009 102.54 5.71171 103.56 6.55081C104.581 7.38991 105.365 8.43647 105.913 9.69051C106.461 10.9353 106.735 12.3738 106.735 14.0059ZM101.992 14.0059C101.992 13.2959 101.887 12.5905 101.676 11.8897C101.474 11.1797 101.107 10.5434 100.576 9.98096C100.053 9.41849 99.336 8.96206 98.4254 8.61167C97.5147 8.26128 96.3553 8.08608 94.9472 8.08608C94.0028 8.08608 93.1722 8.16907 92.4555 8.33504C91.7388 8.4918 91.119 8.7131 90.5963 8.99894C90.0735 9.28479 89.635 9.62135 89.2809 10.0086C88.9267 10.3867 88.6442 10.797 88.4334 11.2396C88.2226 11.673 88.0709 12.1294 87.9781 12.6089C87.8938 13.0792 87.8516 13.5448 87.8516 14.0059C87.8516 14.4761 87.8938 14.951 87.9781 15.4305C88.0709 15.91 88.2226 16.371 88.4334 16.8136C88.6442 17.247 88.9267 17.6527 89.2809 18.0308C89.635 18.4088 90.0735 18.7408 90.5963 19.0266C91.119 19.3032 91.7388 19.5245 92.4555 19.6905C93.1722 19.8473 94.0028 19.9256 94.9472 19.9256C96.3553 19.9256 97.5147 19.7504 98.4254 19.4001C99.336 19.0497 100.053 18.5932 100.576 18.0308C101.107 17.4683 101.474 16.8367 101.676 16.1359C101.887 15.4259 101.992 14.7159 101.992 14.0059Z" fill="black"/>
<path d="M130.539 10.9768C130.539 11.9266 130.412 12.8025 130.159 13.6048C129.906 14.3977 129.497 15.0847 128.932 15.6656C128.376 16.2373 127.651 16.6845 126.757 17.0072C125.863 17.33 124.775 17.4913 123.494 17.4913H115.703V23.4941H111.01V4.48995H123.494C124.775 4.48995 125.863 4.65132 126.757 4.97405C127.651 5.28756 128.376 5.73477 128.932 6.31568C129.497 6.88737 129.906 7.56971 130.159 8.36271C130.412 9.1557 130.539 10.0271 130.539 10.9768ZM125.796 11.0598C125.796 10.6172 125.737 10.2391 125.619 9.92564C125.509 9.60291 125.324 9.34012 125.062 9.13726C124.801 8.9344 124.459 8.78686 124.038 8.69466C123.616 8.59323 123.097 8.54251 122.482 8.54251H115.703V13.4388H122.482C123.097 13.4388 123.616 13.4019 124.038 13.3281C124.459 13.2451 124.801 13.1114 125.062 12.927C125.324 12.7334 125.509 12.4844 125.619 12.1801C125.737 11.8758 125.796 11.5024 125.796 11.0598Z" fill="black"/>
<path d="M139.127 23.4941H134.434V4.48995H146.197C147.462 4.48995 148.533 4.63288 149.41 4.91872C150.295 5.20457 151.012 5.61029 151.56 6.13587C152.116 6.66146 152.517 7.2977 152.761 8.04459C153.014 8.78225 153.141 9.60752 153.141 10.5204C153.141 11.3226 153.035 12.0234 152.825 12.6227C152.622 13.2221 152.344 13.7385 151.99 14.1718C151.644 14.596 151.239 14.9556 150.776 15.2507C150.312 15.5457 149.823 15.7901 149.308 15.9837L155 23.4941H149.511L144.249 16.4955H139.127V23.4941ZM148.398 10.4927C148.398 10.1239 148.351 9.81038 148.259 9.55219C148.174 9.29401 148.023 9.08654 147.803 8.92979C147.584 8.76381 147.289 8.64394 146.918 8.57017C146.555 8.49641 146.1 8.45952 145.552 8.45952H139.127V12.5259H145.552C146.1 12.5259 146.555 12.489 146.918 12.4153C147.289 12.3415 147.584 12.2262 147.803 12.0695C148.023 11.9035 148.174 11.6914 148.259 11.4332C148.351 11.1751 148.398 10.8616 148.398 10.4927Z" fill="black"/>
<path d="M23.7766 10.676L23.7604 10.6598C23.7591 10.6589 23.758 10.6577 23.7574 10.6563L13.6072 0.505859L3.45713 10.656C3.45596 10.6572 3.45531 10.6588 3.45413 10.6595L3.43738 10.6758C1.8853 12.2366 0.899455 14.2714 0.636575 16.4568C0.373696 18.6422 0.848865 20.8528 1.98654 22.7372C3.12422 24.6216 4.85912 26.0717 6.91546 26.8567C8.97178 27.6418 11.2315 27.717 13.3355 27.0702C13.5125 27.0161 13.7017 27.0161 13.8788 27.0702C15.9826 27.7167 18.2422 27.6415 20.2984 26.8563C22.3546 26.0711 24.0893 24.6212 25.2269 22.737C26.3645 20.8527 26.8398 18.6422 26.577 16.4569C26.3142 14.2716 25.3285 12.2368 23.7766 10.676ZM7.06636 17.3694C7.01695 17.4188 6.97777 17.4775 6.95104 17.542C6.92431 17.6065 6.91054 17.6757 6.91056 17.7455C6.92862 19.537 7.4349 21.2895 8.37492 22.8147C8.39627 22.8493 8.40614 22.8898 8.40311 22.9303C8.40008 22.9708 8.38432 23.0093 8.35805 23.0404C8.3318 23.0714 8.2964 23.0933 8.25693 23.103C8.21745 23.1127 8.17592 23.1097 8.13828 23.0944C7.4316 22.7971 6.78962 22.365 6.24823 21.8223C5.13875 20.7126 4.51502 19.2079 4.51401 17.6387C4.51301 16.0695 5.13481 14.564 6.24287 13.453L13.6072 6.08937L20.9711 13.453C22.0794 14.5639 22.7014 16.0694 22.7004 17.6387C22.6994 19.2079 22.0756 20.7126 20.966 21.8223C20.4246 22.365 19.7827 22.7971 19.0761 23.0944C19.0384 23.1097 18.9968 23.1127 18.9574 23.103C18.918 23.0933 18.8826 23.0713 18.8562 23.0404C18.83 23.0093 18.8142 22.9708 18.8111 22.9301C18.8081 22.8897 18.818 22.8492 18.8393 22.8146C19.7795 21.2895 20.2861 19.537 20.3044 17.7455C20.3044 17.6757 20.2905 17.6065 20.2637 17.5419C20.2368 17.4773 20.1975 17.4187 20.148 17.3693L16.6648 13.6747C16.63 13.6457 16.5864 13.6298 16.5412 13.6298C16.4961 13.6298 16.4523 13.6457 16.4177 13.6747C16.383 13.7035 16.3597 13.7437 16.3515 13.7882C16.3434 13.8326 16.3511 13.8783 16.3734 13.9177C17.7262 16.3657 16.5629 19.8821 14.623 21.8223L14.6128 21.8325C14.345 22.0974 13.9835 22.2459 13.6069 22.2458C13.2303 22.2456 12.8689 22.0969 12.6013 21.8319L12.5919 21.8223C10.6513 19.8821 9.48857 16.3661 10.8416 13.9182C10.8638 13.8789 10.8716 13.8331 10.8635 13.7887C10.8554 13.7443 10.832 13.704 10.7973 13.6752C10.7627 13.6462 10.7189 13.6304 10.6738 13.6304C10.6286 13.6304 10.5849 13.6462 10.5503 13.6752L7.06636 17.3694Z" fill="#121212"/>
</svg>
